<mxfile host="app.diagrams.net" modified="2021-02-22T01:22:56.352Z" agent="5.0 (Windows NT 10.0; Win64; x64) AppleWebKit/537.36 (KHTML, like Gecko) Chrome/88.0.4324.182 Safari/537.36" etag="w8dC4xTEdPDG9tlJNYmo" version="14.4.2" type="github">
  <diagram id="QPGwjhdJ9A_HLnuE79Uo" name="第 1 页">
    <mxGraphModel dx="1422" dy="969" grid="1" gridSize="10" guides="1" tooltips="1" connect="1" arrows="1" fold="1" page="1" pageScale="1" pageWidth="827" pageHeight="1169" math="0" shadow="0">
      <root>
        <mxCell id="0" />
        <mxCell id="1" parent="0" />
        <mxCell id="s_TuzZa3_Mn291zRtVxR-3" style="edgeStyle=orthogonalEdgeStyle;rounded=0;orthogonalLoop=1;jettySize=auto;html=1;exitX=0.5;exitY=1;exitDx=0;exitDy=0;" edge="1" parent="1" source="s_TuzZa3_Mn291zRtVxR-1">
          <mxGeometry relative="1" as="geometry">
            <mxPoint x="185" y="810" as="targetPoint" />
          </mxGeometry>
        </mxCell>
        <mxCell id="s_TuzZa3_Mn291zRtVxR-1" value="&lt;b&gt;&lt;font style=&quot;font-size: 18px&quot;&gt;上板&lt;/font&gt;&lt;/b&gt;" style="rounded=0;whiteSpace=wrap;html=1;" vertex="1" parent="1">
          <mxGeometry x="120" y="180" width="130" height="50" as="geometry" />
        </mxCell>
        <mxCell id="s_TuzZa3_Mn291zRtVxR-4" style="edgeStyle=orthogonalEdgeStyle;rounded=0;orthogonalLoop=1;jettySize=auto;html=1;exitX=0.5;exitY=1;exitDx=0;exitDy=0;" edge="1" parent="1" source="s_TuzZa3_Mn291zRtVxR-2">
          <mxGeometry relative="1" as="geometry">
            <mxPoint x="625" y="810" as="targetPoint" />
          </mxGeometry>
        </mxCell>
        <mxCell id="s_TuzZa3_Mn291zRtVxR-2" value="&lt;span style=&quot;font-size: 18px&quot;&gt;&lt;b&gt;STM32&lt;/b&gt;&lt;/span&gt;" style="rounded=0;whiteSpace=wrap;html=1;" vertex="1" parent="1">
          <mxGeometry x="560" y="180" width="130" height="50" as="geometry" />
        </mxCell>
        <mxCell id="s_TuzZa3_Mn291zRtVxR-5" value="&lt;b&gt;开机&lt;/b&gt;" style="text;html=1;strokeColor=none;fillColor=none;align=center;verticalAlign=middle;whiteSpace=wrap;rounded=0;" vertex="1" parent="1">
          <mxGeometry x="620" y="250" width="40" height="20" as="geometry" />
        </mxCell>
        <mxCell id="s_TuzZa3_Mn291zRtVxR-6" value="&lt;b&gt;就绪状态&lt;/b&gt;" style="text;html=1;align=center;verticalAlign=middle;resizable=0;points=[];autosize=1;" vertex="1" parent="1">
          <mxGeometry x="130" y="250" width="60" height="20" as="geometry" />
        </mxCell>
        <mxCell id="s_TuzZa3_Mn291zRtVxR-7" value="&lt;b&gt;主动进入Bootload模式&lt;/b&gt;" style="text;html=1;strokeColor=none;fillColor=none;align=center;verticalAlign=middle;whiteSpace=wrap;rounded=0;" vertex="1" parent="1">
          <mxGeometry x="620" y="290" width="90" height="30" as="geometry" />
        </mxCell>
        <mxCell id="s_TuzZa3_Mn291zRtVxR-8" value="" style="endArrow=classic;html=1;exitX=0;exitY=0.5;exitDx=0;exitDy=0;" edge="1" parent="1" source="s_TuzZa3_Mn291zRtVxR-7">
          <mxGeometry width="50" height="50" relative="1" as="geometry">
            <mxPoint x="500" y="490" as="sourcePoint" />
            <mxPoint x="200" y="305" as="targetPoint" />
          </mxGeometry>
        </mxCell>
        <mxCell id="s_TuzZa3_Mn291zRtVxR-9" value="&lt;b&gt;上报处于Bootload状态&lt;/b&gt;" style="text;html=1;align=center;verticalAlign=middle;resizable=0;points=[];autosize=1;" vertex="1" parent="1">
          <mxGeometry x="340" y="280" width="140" height="20" as="geometry" />
        </mxCell>
      </root>
    </mxGraphModel>
  </diagram>
</mxfile>
